PathFileType	4	(X/Y/Z)	C:\Users\ebm\Documents\Erivelton\Erivelton\propulsion2.trc
DataRate	CameraRate	NumFrames	NumMarkers	Units	OrigDataRate	OrigDataStartFrame	OrigNumFrames
150.00	150.00	      4	28	mm	150.00	789	      1261
Frame#	Time	IJ			PX			C7			T8			RAC			RAS			RPS			RAI			RPI			RLE			RME			RRS			RUS			R3M			R5M			LAC			LAS			LPS			LAI			LPI			LLE			LME			LRS			LUS			L3M			L5M			RW			LW			V_mid_elbow_r			V_mid_elbow_l			V_mid_wrist_r			V_mid_wrist_l			V_mid_trunk_low			V_mid_trunk_upp			
		X1	Y1	Z1	X2	Y2	Z2	X3	Y3	Z3	X4	Y4	Z4	X5	Y5	Z5	X6	Y6	Z6	X7	Y7	Z7	X8	Y8	Z8	X9	Y9	Z9	X10	Y10	Z10	X11	Y11	Z11	X12	Y12	Z12	X13	Y13	Z13	X14	Y14	Z14	X15	Y15	Z15	X16	Y16	Z16	X17	Y17	Z17	X18	Y18	Z18	X19	Y19	Z19	X20	Y20	Z20	X21	Y21	Z21	X22	Y22	Z22	X23	Y23	Z23	X24	Y24	Z24	X25	Y25	Z25	X26	Y26	Z26	X27	Y27	Z27	X28	Y28	Z28	

789	5.253	3506.82104	1028.39539	14.01886	3518.58740	852.73376	15.67419	3386.83569	1133.53235	15.74855	3296.43530	939.52069	22.57732	3417.99268	1083.19104	201.15759	3369.67822	925.75079	271.10529	3332.89478	963.33936	283.15189	3317.12061	867.48907	293.58264	3285.50635	905.36487	306.04260	3223.37524	844.97382	328.26028	3200.55200	822.78906	248.53888	3371.04468	621.99127	291.79062	3338.71997	608.57361	339.28613	3422.59082	565.66711	340.85776	3390.13354	545.38623	347.23151	3375.82983	1073.73999	-166.36974	3269.71289	960.42877	-227.34940	3309.83301	940.42297	-245.69931	3224.74268	897.43616	-258.70712	3272.38989	876.28149	-278.07663	3211.41260	826.91583	-294.06348	3189.33081	803.16119	-214.77194	3359.95435	609.77850	-247.51678	3333.60767	587.59174	-310.87015	3421.82056	569.35608	-318.76123	3389.58618	543.99329	-328.10406	3458.16846	306.36407	325.90506	3431.62231	301.73688	-303.18018	3211.96362	833.88141	288.39957	3200.37158	815.03851	-254.41771	3354.88232	615.28241	315.53839	3346.78101	598.68512	-279.19348	3407.51147	896.12720	19.12575	3446.82837	1080.96387	14.88370	
790	5.260	3515.68457	1028.18713	13.67424	3526.74634	852.43671	15.37203	3395.97192	1133.82788	15.60178	3305.14819	939.80707	22.26483	3427.65186	1082.53113	201.07246	3380.27100	923.83380	271.14444	3343.11548	961.54974	283.48477	3328.59961	865.49030	294.02856	3296.56177	902.98773	306.65512	3235.31006	841.84589	328.94934	3212.70190	819.01373	249.39165	3385.99683	620.88965	291.06467	3355.21509	608.17383	340.17264	3439.45166	566.75623	341.09357	3407.83252	546.73254	349.34064	3385.28809	1073.21399	-166.94753	3280.08521	958.37592	-228.94469	3320.62378	938.89465	-247.20279	3236.16040	894.98840	-260.80066	3284.31592	874.26587	-279.91132	3224.20996	824.55365	-296.48941	3201.99194	800.13934	-217.29840	3375.18506	609.17773	-248.90492	3349.28101	586.68567	-312.21939	3437.60498	568.95422	-320.18103	3405.49731	543.64270	-329.72601	3466.48413	306.32257	325.64764	3440.00269	301.74396	-303.49371	3224.00586	830.42981	289.17050	3213.10107	812.34650	-256.89392	3370.60596	614.53174	315.61865	3362.23291	597.93170	-280.56216	3415.94727	896.12189	18.81843	3455.82813	1081.00757	14.63801	
791	5.267	3524.64624	1027.90857	13.39010	3535.20386	852.25494	15.13618	3405.02856	1133.75745	15.31732	3313.77759	940.08105	21.90574	3436.98242	1082.22205	200.99831	3391.09106	922.69055	271.32413	3353.40820	959.70917	283.87402	3340.28931	863.47974	294.62195	3307.87354	900.55017	307.36899	3247.44873	838.61176	329.77988	3224.92310	815.30017	250.43680	3400.87329	619.59607	290.81656	3371.44360	607.92719	340.90738	3457.76001	567.87695	342.63498	3424.98535	547.53387	350.37402	3394.92944	1072.76550	-167.81236	3290.71265	956.38336	-230.82675	3331.49219	937.40393	-248.68668	3247.57324	892.58905	-263.09164	3294.46484	873.18903	-281.76581	3236.56421	822.13519	-298.66479	3214.24292	797.28290	-220.03181	3390.82983	609.22394	-250.07234	3365.09009	585.76453	-313.25497	3453.40698	568.28760	-321.40796	3421.30298	542.81909	-330.82974	3474.85449	306.19315	325.34155	3448.29346	301.68842	-303.82172	3236.18604	826.95599	290.10834	3225.40356	809.70905	-259.34830	3386.15845	613.76166	315.86197	3377.95996	597.49420	-281.66367	3424.49072	896.16803	18.52096	3464.83740	1080.83301	14.35371	
792	5.273	3533.52466	1027.73401	13.14028	3543.43823	851.89795	14.85847	3414.05981	1133.67249	14.98149	3322.63257	940.28271	21.52151	3446.47803	1081.60876	200.98515	3402.00317	921.29144	271.47971	3363.97900	957.76141	284.33691	3352.21167	861.40784	295.12408	3319.25610	898.01166	308.18588	3259.92578	835.34070	330.76730	3237.21997	811.67157	251.53554	3416.18091	618.61163	290.99017	3387.49512	606.59723	341.35406	3474.05933	567.67749	343.40509	3441.62305	546.79425	350.78558	3404.70166	1072.27356	-168.70862	3301.33984	954.44806	-232.57521	3342.47021	935.93091	-250.29054	3259.15308	890.40515	-265.46860	3306.42065	871.36395	-283.71402	3249.36646	819.83679	-301.31873	3226.38916	794.49078	-222.94254	3407.12109	609.26019	-251.14462	3380.82837	585.04987	-314.02155	3469.28540	567.36572	-322.33029	3436.73389	541.84760	-331.41693	3483.19824	306.14948	325.04022	3456.55591	301.65912	-304.04791	3248.57300	823.50616	291.15143	3237.87793	807.16382	-262.13065	3401.83789	612.60443	316.17212	3393.97461	597.15503	-282.58310	3433.03540	896.09033	18.18999	3473.79224	1080.70325	14.06088	
